<svg width="128" height="20" viewBox="0 0 128 20" fill="none" xmlns="http://www.w3.org/2000/svg">
<g clip-path="url(#clip0_1466_13959)">
<path d="M108.414 17.5823C108.321 17.5509 108.237 17.4974 108.171 17.4266C108.104 17.3558 108.055 17.2699 108.03 17.1764C108.005 17.0829 108.003 16.9847 108.025 16.8905C108.048 16.7963 108.093 16.7089 108.158 16.636L109.544 14.955C109.659 14.814 109.822 14.7191 110.003 14.688C110.184 14.657 110.37 14.6918 110.526 14.7862C113.801 16.2605 117.429 16.8061 121.001 16.3614C123.639 16.0052 124.116 14.89 124.116 13.9029C124.105 13.4972 123.971 13.1039 123.732 12.7734C123.492 12.4429 123.158 12.1901 122.773 12.0475C120.133 11.4856 117.45 11.1412 114.752 11.0177C110.763 10.6188 108.48 8.70765 108.48 5.6814C108.457 4.81033 108.681 3.9502 109.125 3.19673C109.569 2.44327 110.218 1.82607 110.997 1.41387C112.832 0.217094 120.229 -1.50663 127.594 2.42138C127.683 2.45782 127.762 2.51381 127.825 2.58508C127.888 2.65634 127.934 2.74098 127.959 2.83241C127.983 2.92385 127.986 3.01967 127.968 3.11248C127.949 3.20528 127.909 3.29254 127.85 3.36762L126.463 5.04868C126.343 5.18135 126.18 5.2702 126.002 5.30083C125.824 5.33146 125.641 5.3021 125.482 5.21754C122.85 3.99808 119.963 3.40809 117.056 3.49565C112.384 3.62182 112.384 5.07099 112.384 5.70184C112.384 6.41619 112.384 7.29939 115.285 7.61296L120.768 8.20112C125.909 8.74662 128.086 10.7227 127.999 14.0421C127.912 17.3615 125.759 18.6641 122.921 19.4415C118.016 20.5862 112.855 19.9208 108.414 17.5712" fill="#005EB9"/>
<path d="M60.5207 19.9777H57.834C57.6677 19.9788 57.5075 19.9157 57.3878 19.8019C57.268 19.6882 57.1983 19.5329 57.1934 19.3691V0.71251C57.1939 0.545347 57.2615 0.385137 57.3815 0.266935C57.5016 0.148732 57.6643 0.0820935 57.834 0.081604H60.5225C60.6054 0.0823134 60.6873 0.0993135 60.7634 0.131546C60.8396 0.163779 60.9084 0.210635 60.9659 0.26937C61.0235 0.328104 61.0685 0.397528 61.0985 0.473613C61.1285 0.549697 61.1427 0.63093 61.1405 0.71251V19.3691C61.14 19.5304 61.0748 19.6849 60.959 19.7989C60.8432 19.9129 60.6863 19.9772 60.5225 19.9777" fill="#005EB9"/>
<path d="M38.3749 12.7303C46.288 21.2394 53.585 19.8942 53.585 19.8942C53.7487 19.8937 53.9056 19.8295 54.0214 19.7155C54.1372 19.6014 54.2025 19.4469 54.203 19.2856V16.8903C54.2025 16.729 54.1372 16.5745 54.0214 16.4604C53.9056 16.3464 53.7487 16.2822 53.585 16.2817C50.9166 16.3391 48.2784 15.7166 45.9262 14.4744C43.9898 13.3005 42.2843 11.7919 40.892 10.0214C42.2979 8.26327 44.0009 6.75682 45.9262 5.56821C48.2784 4.32609 50.9166 3.70357 53.585 3.76099C53.7487 3.7605 53.9056 3.69626 54.0214 3.58223C54.1372 3.4682 54.2025 3.31365 54.203 3.1524V0.757024C54.2025 0.595766 54.1372 0.441274 54.0214 0.327247C53.9056 0.21322 53.7487 0.148917 53.585 0.148428C53.585 0.148428 46.3106 -1.17453 38.3749 7.31234C30.4618 -1.19679 23.1855 0.128043 23.1855 0.128043C23.0192 0.127002 22.859 0.190074 22.7393 0.303805C22.6196 0.417535 22.5498 0.572903 22.5449 0.736639V3.17284C22.5456 3.25444 22.5629 3.33506 22.5956 3.41003C22.6283 3.48501 22.6759 3.55286 22.7355 3.60952C22.7952 3.66618 22.8657 3.71052 22.9429 3.74004C23.0202 3.76956 23.1027 3.78365 23.1855 3.78143C25.8539 3.72393 28.4921 4.34645 30.8442 5.58865C32.7807 6.76263 34.4861 8.27117 35.8785 10.0417C34.475 11.7964 32.7714 13.2965 30.8442 14.4744C28.492 15.7166 25.8539 16.3391 23.1855 16.2817C23.0192 16.2806 22.859 16.3437 22.7393 16.4574C22.6196 16.5712 22.5498 16.7265 22.5449 16.8903V19.2856C22.5456 19.3672 22.5629 19.4479 22.5956 19.5229C22.6283 19.5979 22.6759 19.6657 22.7355 19.7223C22.7952 19.779 22.8657 19.8234 22.9429 19.8529C23.0202 19.8824 23.1027 19.8964 23.1855 19.8942C23.1648 19.9146 30.4392 21.2394 38.3749 12.7303Z" fill="#A20067"/>
<path d="M80.9588 1.71998C78.3919 0.533751 75.5702 -0.0185932 72.7378 0.110726C69.9053 0.240045 67.1475 1.04712 64.7031 2.46216C64.6144 2.49859 64.5354 2.55459 64.4722 2.62586C64.409 2.69712 64.3632 2.78175 64.3384 2.87319C64.3137 2.96463 64.3106 3.06045 64.3294 3.15325C64.3482 3.24606 64.3884 3.33337 64.4469 3.40846L65.8128 5.08952C65.9303 5.22662 66.093 5.31861 66.2725 5.34948C66.4519 5.38035 66.6367 5.34808 66.7944 5.25831C69.3134 4.06971 72.0876 3.50054 74.879 3.59957C79.5515 3.72574 79.7644 5.40676 79.7644 6.03576V8.32541C78.9826 7.99536 78.1412 7.82371 77.2906 7.82072H69.6526C68.0146 7.82072 66.4437 8.46154 65.2855 9.60218C64.1273 10.7428 63.4766 12.2898 63.4766 13.9029C63.4766 15.516 64.1273 17.063 65.2855 18.2037C66.4437 19.3443 68.0146 19.9851 69.6526 19.9851H77.2906C78.1018 19.9841 78.9048 19.8257 79.6538 19.5189C80.4027 19.212 81.0829 18.7628 81.6555 18.1969C82.228 17.631 82.6817 16.9594 82.9905 16.2207C83.2993 15.482 83.4572 14.6907 83.4553 13.8918V6.01351C83.4867 5.14085 83.2695 4.27694 82.8283 3.5195C82.3871 2.76205 81.7396 2.1413 80.9588 1.7274M77.5035 16.5804H69.4604C68.7593 16.5546 68.0957 16.2622 67.6089 15.7646C67.1222 15.2671 66.8503 14.6031 66.8503 13.9122C66.8503 13.2213 67.1222 12.5573 67.6089 12.0597C68.0957 11.5622 68.7593 11.2698 69.4604 11.244H77.5035C78.2045 11.2698 78.8682 11.5622 79.3549 12.0597C79.8416 12.5573 80.1136 13.2213 80.1136 13.9122C80.1136 14.6031 79.8416 15.2671 79.3549 15.7646C78.8682 16.2622 78.2045 16.5546 77.5035 16.5804Z" fill="#0068B6"/>
<path d="M17.494 1.71998C14.9271 0.533751 12.1053 -0.0185932 9.2729 0.110726C6.44047 0.240045 3.6827 1.04712 1.23825 2.46216C1.14957 2.49859 1.07057 2.55459 1.00735 2.62586C0.944127 2.69712 0.898373 2.78175 0.873614 2.87319C0.848855 2.96463 0.845752 3.06045 0.864547 3.15325C0.883342 3.24606 0.923533 3.33337 0.982018 3.40846L2.34797 5.08952C2.46546 5.22662 2.62817 5.31861 2.80762 5.34948C2.98708 5.38035 3.17184 5.34808 3.32957 5.25831C5.84857 4.06971 8.62271 3.50054 11.4141 3.59957C16.0866 3.72574 16.2995 5.40676 16.2995 6.03576V8.32541C15.5177 7.99536 14.6764 7.82371 13.8257 7.82072H6.1877C4.54973 7.82072 2.97884 8.46154 1.82062 9.60218C0.662401 10.7428 0.0117188 12.2898 0.0117188 13.9029C0.0117188 15.516 0.662401 17.063 1.82062 18.2037C2.97884 19.3443 4.54973 19.9851 6.1877 19.9851H13.8257C14.6369 19.9841 15.4399 19.8257 16.1889 19.5189C16.9379 19.212 17.6181 18.7628 18.1906 18.1969C18.7631 17.631 19.2168 16.9594 19.5256 16.2207C19.8345 15.482 19.9924 14.6907 19.9904 13.8918V6.01351C20.0218 5.14085 19.8046 4.27694 19.3635 3.5195C18.9223 2.76205 18.2747 2.1413 17.494 1.7274M14.0386 16.5804H5.99553C5.29446 16.5546 4.63083 16.2622 4.14409 15.7646C3.65735 15.2671 3.38541 14.6031 3.38541 13.9122C3.38541 13.2213 3.65735 12.5573 4.14409 12.0597C4.63083 11.5622 5.29446 11.2698 5.99553 11.244H14.0367C14.7378 11.2698 15.4014 11.5622 15.8882 12.0597C16.3749 12.5573 16.6469 13.2213 16.6469 13.9122C16.6469 14.6031 16.3749 15.2671 15.8882 15.7646C15.4014 16.2622 14.7378 16.5546 14.0367 16.5804" fill="#005EB9"/>
<path d="M96.0612 0.0815655C97.2455 0.0673745 98.4292 0.137458 99.6032 0.291245C106.045 1.08909 105.855 5.85762 105.855 5.85762V19.3245C105.854 19.4061 105.837 19.4868 105.804 19.5618C105.771 19.6368 105.724 19.7046 105.664 19.7612C105.604 19.8179 105.534 19.8623 105.457 19.8918C105.379 19.9213 105.297 19.9354 105.214 19.9331H102.765C102.598 19.9342 102.438 19.8711 102.318 19.7574C102.199 19.6436 102.129 19.4883 102.124 19.3245V5.85762C102.124 5.85762 102.209 4.11348 98.7742 3.81661C96.957 3.64838 95.1277 3.64838 93.3105 3.81661C89.8758 4.11162 89.9605 5.85762 89.9605 5.85762V19.3245C89.9598 19.4061 89.9426 19.4868 89.9099 19.5618C89.8772 19.6368 89.8296 19.7046 89.7699 19.7612C89.7103 19.8179 89.6398 19.8623 89.5625 19.8918C89.4852 19.9213 89.4028 19.9354 89.32 19.9331H86.8707C86.7044 19.9342 86.5442 19.8711 86.4245 19.7574C86.3048 19.6436 86.235 19.4883 86.2301 19.3245V5.85762C86.2301 5.85762 86.0417 1.08909 92.4815 0.291245C93.6686 0.142789 94.8645 0.072731 96.0612 0.0815655Z" fill="#005EB9"/>
</g>
<defs>
<clipPath id="clip0_1466_13959">
<rect width="128" height="20" fill="white"/>
</clipPath>
</defs>
</svg>
