<svg width="200" height="17" viewBox="0 0 200 17" fill="none" xmlns="http://www.w3.org/2000/svg">
<path d="M73.291 13.6388C72.7971 13.362 73.1173 12.9929 73.1173 12.9929L74.0454 11.8423C74.2462 11.5981 74.5176 11.6252 74.713 11.7284C76.8514 12.8193 79.7225 13.0852 81.7903 12.8084C83.5868 12.5642 83.8961 11.7935 83.8961 11.1259C83.8961 10.1761 82.9843 9.86134 82.9843 9.86134C82.4416 9.56826 80.2598 9.438 77.5678 9.1612C74.8758 8.88441 73.3236 7.57098 73.3236 5.50314C73.3236 4.22228 73.8446 3.34847 75.0278 2.57235C76.2706 1.75282 81.2801 0.558791 86.2516 3.26706C86.7129 3.50044 86.4253 3.91292 86.4253 3.91292L85.4972 5.06352C85.2855 5.29147 85.0196 5.26977 84.8296 5.1775C83.3751 4.39053 81.1933 3.98347 79.1363 3.99433C75.983 4.08659 75.983 5.07438 75.983 5.50857C75.983 5.99704 75.983 6.59948 77.9423 6.82743L81.6546 7.22905C85.1281 7.60354 86.6098 8.96582 86.5447 11.2453C86.4796 13.5248 85.025 14.4258 83.12 14.9468C83.12 14.9468 78.0943 16.3254 73.2964 13.6442L73.291 13.6388Z" fill="#1C5FAA"/>
<path d="M40.9056 1.62256H39.0874C38.8536 1.62256 38.6641 1.81209 38.6641 2.04589V14.86C38.6641 15.0938 38.8536 15.2833 39.0874 15.2833H40.9056C41.1394 15.2833 41.3289 15.0938 41.3289 14.86V2.04589C41.3289 1.81209 41.1394 1.62256 40.9056 1.62256Z" fill="#1C5FAA"/>
<path d="M25.932 10.3065C31.2888 16.1409 36.2061 15.2291 36.2061 15.2291C36.4394 15.2291 36.6294 15.0392 36.6294 14.8058V13.1613C36.6294 12.9279 36.4394 12.738 36.2061 12.738C36.2061 12.738 33.2101 12.8574 31.0283 11.4951C28.8519 10.1382 27.6253 8.45574 27.6199 8.44489C27.6253 8.43403 28.8519 6.74611 31.0283 5.3947C33.2101 4.03785 36.2061 4.15182 36.2061 4.15182C36.4394 4.15182 36.6294 3.96186 36.6294 3.72849V2.08399C36.6294 1.85061 36.4394 1.66065 36.2061 1.66065C36.2061 1.66065 31.2888 0.748851 25.932 6.58329C20.5752 0.765133 15.658 1.67151 15.658 1.67151C15.4246 1.67151 15.2346 1.86147 15.2346 2.09484V3.73934C15.2346 3.97272 15.4246 4.16268 15.658 4.16268C15.658 4.16268 18.6539 4.04328 20.8357 5.40555C23.0121 6.7624 24.2387 8.44489 24.2441 8.45574C24.2387 8.4666 23.0121 10.1545 20.8357 11.5059C18.6539 12.8628 15.658 12.7488 15.658 12.7488C15.4246 12.7488 15.2346 12.9388 15.2346 13.1721V14.8166C15.2346 15.05 15.4246 15.24 15.658 15.24C15.658 15.24 20.5752 16.1518 25.932 10.3173V10.3065Z" fill="#A21669"/>
<path d="M54.7349 2.73541C53.492 1.91045 48.7214 0.499329 43.7499 3.23473C43.2886 3.47354 43.5762 3.88602 43.5762 3.88602L44.5043 5.04748C44.7105 5.28086 44.9819 5.25915 45.1719 5.16146C46.6264 4.36906 48.5748 4.01628 50.6318 4.02713C53.7851 4.1194 53.9317 5.25915 53.9317 5.69877V7.27271C53.4215 7.05019 52.857 6.92536 52.26 6.92536H47.0932C44.7865 6.92536 42.9141 8.79781 42.9141 11.099C42.9141 12.2551 43.3808 13.2971 44.1352 14.0515C44.8896 14.8059 45.9371 15.2727 47.0877 15.2727H52.2546C54.5612 15.2727 56.4283 13.4002 56.4283 11.0936V5.68791C56.4283 4.39077 55.9072 3.51153 54.7241 2.72456L54.7349 2.73541ZM52.3957 12.9389H46.9575C45.986 12.9389 45.199 12.1139 45.199 11.1044C45.199 10.095 45.986 9.26999 46.9575 9.26999H52.3957C53.3672 9.26999 54.1542 10.095 54.1542 11.1044C54.1542 12.1139 53.3672 12.9389 52.3957 12.9389Z" fill="#1C5FAA"/>
<path d="M11.8154 2.73651C10.5726 1.91155 5.80188 0.500428 0.830391 3.23583C0.369062 3.47464 0.656714 3.88712 0.656714 3.88712L1.5848 5.04858C1.79104 5.28196 2.06241 5.26025 2.25237 5.16255C3.70691 4.37016 5.65534 4.01738 7.71232 4.02823C10.8656 4.1205 11.0122 5.26025 11.0122 5.69987V7.27381C10.502 7.05129 9.93755 6.92646 9.34054 6.92646H4.17909C1.87245 6.92646 0 8.79891 0 11.1001C0 12.2562 0.466756 13.2982 1.22116 14.0526C1.97557 14.807 3.02306 15.2738 4.17366 15.2738H9.34054C11.6472 15.2738 13.5142 13.4013 13.5142 11.0947V5.68901C13.5142 4.39187 12.9932 3.51263 11.81 2.72566L11.8154 2.73651ZM9.47622 12.94H4.04341C3.0719 12.94 2.28493 12.115 2.28493 11.1055C2.28493 10.0961 3.0719 9.27109 4.04341 9.27109H9.48165C10.4532 9.27109 11.2401 10.0961 11.2401 11.1055C11.2401 12.115 10.4532 12.94 9.48165 12.94H9.47622Z" fill="#1C5FAA"/>
<path d="M64.9442 1.61749C66.4475 1.61749 67.3322 1.76403 67.3322 1.76403C71.6904 2.31763 71.5601 5.59577 71.5601 5.59577V14.8386C71.5601 15.072 71.3702 15.262 71.1368 15.262H69.4815C69.2481 15.262 69.0581 15.072 69.0581 14.8386V5.59577C69.0581 5.59577 69.1124 4.39089 66.7949 4.19008C65.4326 4.07067 64.9442 4.09781 64.9442 4.09781C64.9442 4.09781 64.4611 4.07067 63.0934 4.19008C60.7759 4.39089 60.8302 5.59577 60.8302 5.59577V14.8386C60.8302 15.072 60.6402 15.262 60.4069 15.262H58.7515C58.5181 15.262 58.3282 15.072 58.3282 14.8386V5.59577C58.3282 5.59577 58.1979 2.31763 62.5561 1.76403C62.5561 1.76403 63.4408 1.61749 64.9442 1.61749Z" fill="#1C5FAA"/>
<g clip-path="url(#clip0_284_27803)">
<path d="M103.99 16.6357L97.2317 13.4557V8.24323H98.3113V12.7618L103.99 15.4282L109.669 12.7618V8.24323H110.749V13.4557L103.99 16.6357Z" fill="#A21669"/>
<path d="M107.401 2.03079L104.081 0.364319L104.071 0.386174L101.917 1.45709L94.9153 4.87745V5.75166L102.214 9.31408L102.446 8.28142L96.3404 5.38012L104.098 1.52812L105.69 2.3313V2.33676L105.825 2.39687L111.768 5.38559L105.69 8.28142L105.922 9.31408L113.22 5.75166V4.87745L107.401 2.03079Z" fill="#1C5FAA"/>
</g>
<path d="M122.768 3.8974V15.8594H121.232V3.8974H122.768Z" fill="#1C5FAA"/>
<path d="M128.505 3.82155V6.02507C129.145 4.84733 130.654 3.77271 132.375 3.77271C134.86 3.77271 136.038 5.33579 136.038 7.6153V15.8649H134.551V7.64243C134.551 6.07935 133.655 5.05357 131.94 5.05357C130.508 5.05357 129.303 6.05221 128.635 7.38192V15.8595H127.148V3.89754L128.505 3.82155Z" fill="#1C5FAA"/>
<path d="M145.867 6.71428C145.303 5.66137 144.277 5.04808 142.817 5.04808C141.46 5.04808 140.304 5.71564 140.304 6.94223C140.304 10.0413 147.094 8.50532 147.094 12.6301C147.094 14.8065 145.324 15.9843 142.969 15.9843C140.793 15.9843 139.409 15.0128 138.665 13.4497L139.767 12.7821C140.38 14.1389 141.536 14.7034 142.893 14.7034C144.684 14.7034 145.607 13.9327 145.607 12.7061C145.607 9.73734 138.844 11.3981 138.844 6.96937C138.844 5.1512 140.483 3.76721 142.812 3.76721C144.939 3.76721 146.269 4.68987 146.985 6.01958L145.856 6.70886L145.867 6.71428Z" fill="#1C5FAA"/>
<path d="M151.934 0.901672V3.89759H155.109L155.06 5.12418H151.934V12.348C151.934 14.0631 152.651 14.7035 153.883 14.7035C154.523 14.7035 155.06 14.5244 155.342 14.3725L155.598 15.5502C155.212 15.7564 154.572 15.9844 153.6 15.9844C151.272 15.9844 150.452 14.4213 150.452 12.424V5.12961H148.379V3.90302H150.452V1.10791L151.94 0.901672H151.934Z" fill="#1C5FAA"/>
<path d="M159.337 3.82153V15.8595H157.85V3.89752L159.337 3.82153Z" fill="#1C5FAA"/>
<path d="M165.151 0.901672V3.89759H168.326L168.277 5.12418H165.151V12.348C165.151 14.0631 165.867 14.7035 167.099 14.7035C167.739 14.7035 168.277 14.5244 168.559 14.3725L168.814 15.5502C168.429 15.7564 167.788 15.9844 166.817 15.9844C164.488 15.9844 163.669 14.4213 163.669 12.424V5.12961H161.596V3.90302H163.669V1.10791L165.156 0.901672H165.151Z" fill="#1C5FAA"/>
<path d="M172.3 3.8974V12.0656C172.3 13.7318 173.07 14.7033 174.861 14.7033C176.321 14.7033 177.553 13.6016 178.194 12.2936V3.8974H179.681V13.2217C179.681 14.0141 179.833 15.0127 180.088 15.7345L178.807 15.9896C178.574 15.3763 178.422 14.3506 178.395 13.6613C177.727 14.8662 176.321 15.9896 174.525 15.9896C171.529 15.9896 170.812 13.9164 170.812 11.9679V3.8974H172.3Z" fill="#1C5FAA"/>
<path d="M185.485 0.901672V3.89759H188.66L188.612 5.12418H185.485V12.348C185.485 14.0631 186.202 14.7035 187.434 14.7035C188.074 14.7035 188.612 14.5244 188.894 14.3725L189.149 15.5502C188.764 15.7564 188.123 15.9844 187.152 15.9844C184.823 15.9844 184.004 14.4213 184.004 12.424V5.12961H181.93V3.90302H184.004V1.10791L185.491 0.901672H185.485Z" fill="#1C5FAA"/>
<path d="M191.582 10.812C191.816 13.1403 193.248 14.7034 195.273 14.7034C196.76 14.7034 197.965 13.8839 198.551 12.4999L199.702 13.0915C198.882 14.8608 197.373 15.9843 195.267 15.9843C192.168 15.9843 190.041 13.6559 190.041 9.86217C190.041 6.06842 192.114 3.76721 195.186 3.76721C198.258 3.76721 199.848 6.01958 200 9.57994L191.571 10.8065L191.582 10.812ZM198.394 8.50532C198.138 6.27466 197.058 5.04808 195.137 5.04808C192.906 5.04808 191.528 6.76313 191.528 9.60708L198.394 8.50532Z" fill="#1C5FAA"/>
<defs>
<clipPath id="clip0_284_27803">
<rect width="18.3052" height="16.2713" fill="white" transform="translate(94.9153 0.364319)"/>
</clipPath>
</defs>
</svg>
